HIERARCHY
ROOT Hips
{
	OFFSET 0.00000 0.00000 0.00000
	CHANNELS 6 Xposition Yposition Zposition Zrotation Yrotation Xrotation 
	JOINT LHipJoint
	{
		OFFSET 0 0 0
		CHANNELS 3 Zrotation Yrotation Xrotation
		JOINT LeftHip
		{
			OFFSET 1.34019 -1.87553 0.90315
			CHANNELS 3 Zrotation Yrotation Xrotation
			JOINT LeftKnee
			{
				OFFSET 2.55316 -7.01474 0.00000
				CHANNELS 3 Zrotation Yrotation Xrotation
				JOINT LeftAnkle
				{
					OFFSET 2.64657 -7.27139 0.00000
					CHANNELS 3 Zrotation Yrotation Xrotation
					JOINT LeftToe
					{
						OFFSET 0.24207 -0.66507 2.14489
						CHANNELS 3 Zrotation Yrotation Xrotation
						End Site
						{
							OFFSET 0.00000 -0.00000 1.12451
						}
					}
				}
			}
		}
	}
	JOINT RHipJoint
	{
		OFFSET 0 0 0
		CHANNELS 3 Zrotation Yrotation Xrotation
		JOINT RightHip
		{
			OFFSET -1.28320 -1.87553 0.90315
			CHANNELS 3 Zrotation Yrotation Xrotation
			JOINT RightKnee
			{
				OFFSET -2.60484 -7.15674 0.00000
				CHANNELS 3 Zrotation Yrotation Xrotation
				JOINT RightAnkle
				{
					OFFSET -2.60296 -7.15159 0.00000
					CHANNELS 3 Zrotation Yrotation Xrotation
					JOINT RightToe
					{
						OFFSET -0.31082 -0.85398 2.28998
						CHANNELS 3 Zrotation Yrotation Xrotation
						End Site
						{
							OFFSET -0.00000 -0.00000 1.21611
						}
					}
				}
			}
		}
	}
	JOINT lowerback
	{
		OFFSET 0 0 0
		CHANNELS 3 Zrotation Yrotation Xrotation
		JOINT Chest
		{
			OFFSET -0.00160 2.05581 -0.15156
			CHANNELS 3 Zrotation Yrotation Xrotation
			JOINT Chest2
			{
				OFFSET 0.04594 2.06326 -0.01617
				CHANNELS 3 Zrotation Yrotation Xrotation
				JOINT lowerneck
				{
					OFFSET 0 0 0
					CHANNELS 3 Zrotation Yrotation Xrotation
					JOINT Neck
					{
						OFFSET 0.03753 1.73883 0.26751
						CHANNELS 3 Zrotation Yrotation Xrotation
						JOINT Head
						{
							OFFSET -0.09795 1.76129 -0.31794
							CHANNELS 3 Zrotation Yrotation Xrotation
							End Site
							{
								OFFSET -0.03611 1.79987 -0.13846
							}
						}
					}
				}
				JOINT LeftCollar
				{
					OFFSET 0 0 0
					CHANNELS 3 Zrotation Yrotation Xrotation
					JOINT LeftShoulder
					{
						OFFSET 3.30667 1.29205 -0.22445
CHANNELS 3 Zrotation Xrotation Yrotation
						JOINT LeftElbow
						{
OFFSET 0 -4.927850 -0.000000
CHANNELS 3 Zrotation Xrotation Yrotation
							JOINT LeftWrist
							{
OFFSET 0 -3.440520 0.000000
CHANNELS 3 Zrotation Xrotation Yrotation
								JOINT lhand
								{
									OFFSET 0 0 0
CHANNELS 3 Zrotation Xrotation Yrotation
									JOINT LFingers
									{
OFFSET 0 -0.654330 0.000000
CHANNELS 3 Zrotation Xrotation Yrotation
										End Site
										{
OFFSET 0 -0.527530 0.000000
										}
									}
								}
								JOINT LThumb
								{
OFFSET 0 0.000000 0.000000
CHANNELS 3 Zrotation Xrotation Yrotation
									End Site
									{
OFFSET 0 -0.535590 0.535590
									}
								}
							}
						}
					}
				}
				JOINT RightCollar
				{
					OFFSET 0 0 0
					CHANNELS 3 Zrotation Yrotation Xrotation
					JOINT RightShoulder
					{
						OFFSET -3.20032 1.49783 -0.27688
CHANNELS 3 Zrotation Xrotation Yrotation
						JOINT RightElbow
						{
OFFSET 0 -5.091810 -0.000000
CHANNELS 3 Zrotation Xrotation Yrotation
							JOINT RightWrist
							{
OFFSET 0 -3.498650 -0.000000
CHANNELS 3 Zrotation Xrotation Yrotation
								JOINT rhand
								{
									OFFSET 0 0 0
CHANNELS 3 Zrotation Xrotation Yrotation
									JOINT RFingers
									{
OFFSET 0 -0.666410 0.000000
CHANNELS 3 Zrotation Xrotation Yrotation
										End Site
										{
OFFSET 0 -0.537280 0.000000
										}
									}
								}
								JOINT RThumb
								{
OFFSET 0 0.000000 0.000000
CHANNELS 3 Zrotation Xrotation Yrotation
									End Site
									{
OFFSET 0 -0.545480 0.545480
									}
								}
							}
						}
					}
				}
			}
		}
	}
}
MOTION
Frames: 6
Frame Time: 0.008333333333333333
2.109797 17.569857 37.908592 -361.934306 183.377000 -0.846425 0.000000 0.000000 0.000000 -0.669580 -4.872302 -7.363553 1.991420 8.847911 25.320885 -1.824988 25.014322 0.936146 4.774045 13.124712 39.837240 0.000000 0.000000 0.000000 10.192868 -4.950280 -11.863400 -3.835451 -11.938014 35.513308 -0.272521 -14.772404 -23.655227 -0.025822 1.037704 -2.852617 -1.116928 2.843855 9.319228 3.529036 3.597938 1.826505 3.857939 1.722724 -3.620004 7.243195 3.360479 -17.712516 -11.310881 3.848303 35.741915 -5.841121 -0.002433 16.142314 0.000000 0.000000 0.000000 1.340999 5.188120 -13.948620 14.203609 -23.025026 2.907306 16.907843 -4.177503 0.581025 0.000000 0.000000 0.000000 -7.125000 0.000000 0.000000 -7.552242 29.333999 -2.906855 0.000000 0.000000 0.000000 -14.189381 7.897203 -1.957783 -19.379569 -29.887407 -5.218660 -16.896747 -7.624595 5.136849 0.000000 0.000000 0.000000 7.125000 0.000000 0.000000 8.132255 35.251628 1.963599
1.551158 17.305472 37.855859 -361.287985 184.183962 -0.309577 0.000000 0.000000 0.000000 -1.171936 -2.344853 -6.450788 1.619883 8.024875 22.789639 -2.188572 26.528390 -0.856970 5.210167 13.616593 41.722770 0.000000 0.000000 0.000000 8.562715 -5.306085 -14.138503 -4.656734 -12.986485 39.317889 -0.453141 -14.109497 -24.468827 -0.045912 1.382279 -3.801415 -3.288065 2.874100 9.350073 4.086665 3.506940 1.058657 5.678943 1.764126 -4.602375 8.658218 2.360100 -18.249922 -11.388275 2.360990 32.696306 -6.059454 -0.245252 14.598987 0.000000 0.000000 0.000000 2.961979 4.931797 -17.973483 15.198972 -24.422455 3.307768 15.112977 -6.471289 1.579765 0.000000 0.000000 0.000000 -7.125000 0.000000 0.000000 -8.863778 28.301122 -3.641934 0.000000 0.000000 0.000000 -14.336505 9.986288 -8.524265 -16.989218 -26.843512 -4.082479 -17.667699 -6.338430 6.240302 0.000000 0.000000 0.000000 7.125000 0.000000 0.000000 7.635693 36.434455 1.619932
1.027908 17.197567 37.883045 -360.530972 185.439716 0.832508 0.000000 0.000000 0.000000 -2.590769 -1.631754 -10.391432 2.092188 9.055214 25.968440 -2.354291 26.439215 -4.715032 5.062328 13.453608 41.091069 0.000000 0.000000 0.000000 6.554554 -9.218826 -18.317361 -5.433960 -13.856189 42.664875 -0.676432 -9.277191 -21.562443 -0.278754 3.393381 -9.376166 -7.893403 3.896871 10.464164 4.685445 4.410776 0.371955 8.792822 2.449472 -6.489898 7.799789 -0.197091 -20.620681 -8.459246 -1.853562 31.475750 -5.271992 -1.618988 14.028406 0.000000 0.000000 0.000000 4.967734 3.759517 -25.584236 17.347613 -27.313469 4.245763 13.896621 -9.518905 1.174617 0.000000 0.000000 0.000000 -7.125000 0.000000 0.000000 -9.835072 28.711268 -3.954387 0.000000 0.000000 0.000000 -11.280240 12.561369 -18.071200 -17.609111 -27.653593 -4.366382 -17.796459 -6.272421 5.715974 0.000000 0.000000 0.000000 7.125000 0.000000 0.000000 7.460928 35.896688 1.680975
0.684987 17.247209 37.952077 -358.096908 182.880551 2.924882 0.000000 0.000000 0.000000 -0.840407 0.525762 -14.145341 2.457563 9.760374 28.204174 -2.224818 25.616591 -5.453239 5.096534 13.491742 41.238187 0.000000 0.000000 0.000000 4.587524 -10.187558 -25.097008 -6.768209 -15.133523 47.992073 -0.446591 3.246835 -11.928495 -0.879400 5.978107 -16.721023 -9.394158 5.192136 9.876051 4.884956 6.047003 0.276752 9.596305 3.339664 -6.803563 7.840886 -1.467073 -20.157528 -6.460175 -3.676396 26.525904 -4.393826 -2.017840 11.749812 0.000000 0.000000 0.000000 8.519461 2.529377 -29.880301 20.741459 -31.524856 5.914376 13.359263 -13.346826 0.833198 0.000000 0.000000 0.000000 -7.125000 0.000000 0.000000 -10.282273 29.053951 -4.054412 0.000000 0.000000 0.000000 -7.767395 12.918758 -19.594304 -17.497677 -27.508890 -4.314861 -18.036214 -6.333719 5.273636 0.000000 0.000000 0.000000 7.125000 0.000000 0.000000 7.208165 35.448498 1.702647
0.624841 17.324939 37.918063 -356.114404 185.507925 1.873128 0.000000 0.000000 0.000000 0.879928 -3.069976 -12.547946 2.345369 9.551116 27.535048 -2.519576 27.124496 -5.717122 4.846317 13.208586 40.154407 0.000000 0.000000 0.000000 2.093137 -11.732407 -20.164097 -4.966177 -13.343953 40.673051 0.329839 -15.322366 -17.925990 -0.266865 3.316022 -9.160466 -8.007119 4.565224 11.880827 5.008682 5.185919 0.441037 9.003135 2.862708 -7.429694 6.818219 -2.390653 -19.981240 -5.497367 -4.781568 25.223901 -3.939941 -2.475520 11.178157 0.000000 0.000000 0.000000 10.978580 2.333798 -28.067520 22.173787 -33.172898 6.680702 17.300601 -18.595217 0.674991 0.000000 0.000000 0.000000 -7.125000 0.000000 0.000000 -7.239541 29.238173 -2.801523 0.000000 0.000000 0.000000 -6.399223 12.936504 -18.690601 -15.926237 -25.420539 -3.614202 -17.027006 -1.567227 4.781655 0.000000 0.000000 0.000000 7.125000 0.000000 0.000000 7.980752 34.890388 1.997240
0.966103 17.220291 37.799303 -354.918506 186.767215 1.809068 0.000000 0.000000 0.000000 3.698248 -2.652962 -13.025510 2.311817 9.487389 27.332158 -2.151414 25.297685 -4.923634 4.964726 13.343917 40.669932 0.000000 0.000000 0.000000 0.255222 -9.238145 -12.671443 -2.328434 -9.518034 27.430433 3.260939 -30.002035 -12.564039 -0.016985 0.842343 -2.315160 -6.645980 4.130712 11.484834 4.935810 4.799849 0.318746 8.223679 2.611614 -7.123439 6.073451 -2.895452 -19.522114 -5.242926 -5.146173 23.610939 -3.676398 -2.666245 10.491450 0.000000 0.000000 0.000000 12.284678 2.546180 -24.583674 21.969317 -32.942275 6.569115 18.018247 -20.847527 0.023173 0.000000 0.000000 0.000000 -7.125000 0.000000 0.000000 -6.725202 29.921369 -2.489578 0.000000 0.000000 0.000000 -5.911861 14.188645 -17.185193 -15.545161 -24.900033 -3.452254 -17.296260 -1.508832 5.550516 0.000000 0.000000 0.000000 7.125000 0.000000 0.000000 7.854819 35.699328 1.809198
